<?xml version="1.0" standalone="no"?>
<!DOCTYPE svg PUBLIC "-//W3C//DTD SVG 20010904//EN"
 "http://www.w3.org/TR/2001/REC-SVG-20010904/DTD/svg10.dtd">
<svg version="1.0" xmlns="http://www.w3.org/2000/svg"
 width="64.000000pt" height="64.000000pt" viewBox="0 0 64.000000 64.000000"
 preserveAspectRatio="xMidYMid meet">

<g transform="translate(0.000000,64.000000) scale(0.100000,-0.100000)"
fill="#000000" stroke="none">
<path d="M244 631 c-52 -13 -134 -63 -165 -102 -78 -98 -97 -230 -50 -337 44
-98 153 -175 261 -184 31 -2 35 0 33 20 -2 16 1 21 10 16 9 -6 9 -5 0 7 -9 11
-9 19 -2 26 6 6 5 10 -4 10 -8 0 -36 6 -63 13 -66 19 -135 87 -153 152 -35
123 49 259 167 275 l42 6 0 53 c0 59 -4 62 -76 45z"/>
</g>
</svg>
